<?xml version="1.0" encoding="utf-8"?>
<!-- Generator: Adobe Illustrator 25.4.1, SVG Export Plug-In . SVG Version: 6.00 Build 0)  -->
<svg version="1.1" id="Layer_1" xmlns="http://www.w3.org/2000/svg" xmlns:xlink="http://www.w3.org/1999/xlink" x="0px" y="0px"
	 viewBox="0 0 1429.9 1000" style="enable-background:new 0 0 1429.9 1000;" xml:space="preserve">
<g>
	<path d="M1081.2,402.4l32.5-56c3-5.1-0.7-11.5-6.6-11.5H108.9c-14.8,0-26.7-12.1-25.6-26.9c1-12.9,11.8-23.1,24.9-23.1h998.8
		c5.9,0,9.5-6.4,6.6-11.5l-32.5-56c-3.7-6.3,2.7-13.6,9.5-10.9l235.6,96.2c6.3,2.6,6.3,11.5,0,14.1l-235.6,96.3
		C1083.9,416.1,1077.5,408.7,1081.2,402.4z"/>
</g>
<g>
	<path d="M1081.2,782.4l32.5-56c3-5.1-0.7-11.5-6.6-11.5H108.9c-14.8,0-26.7-12.1-25.6-26.9c1-12.9,11.8-23.1,24.9-23.1h998.8
		c5.9,0,9.5-6.4,6.6-11.5l-32.5-56c-3.7-6.3,2.7-13.6,9.5-10.9l235.6,96.2c6.3,2.6,6.3,11.5,0,14.1l-235.6,96.3
		C1083.9,796.1,1077.5,788.7,1081.2,782.4z"/>
</g>
</svg>
