<?xml version="1.0" encoding="utf-8"?>
<!-- Generator: Adobe Illustrator 25.4.1, SVG Export Plug-In . SVG Version: 6.00 Build 0)  -->
<svg version="1.1" id="Layer_1" xmlns="http://www.w3.org/2000/svg"
	xmlns:xlink="http://www.w3.org/1999/xlink" x="0px" y="0px"
	viewBox="0 0 1429.9 1000" style="enable-background:new 0 0 1429.9 1000;" xml:space="preserve">

		<path class="st0 no-shuffle" d="M1113.7,443.7V281.1H88c-27.6,0-50-22.4-50-50c0-27.6,22.4-50,50-50h1025.7V18.5l212.5,212.6L1113.7,443.7z" />
		<path class="st0 no-shuffle" d="M1113.7,981.3V818.7H88c-27.6,0-50-22.4-50-50c0-27.6,22.4-50,50-50h1025.7V556.1l212.5,212.6L1113.7,981.3z" />
		
		<path class="st0" d="M1113.7,443.7V281.1H88c-27.6,0-50-22.4-50-50c0-27.6,22.4-50,50-50h1025.7V18.5l212.5,212.6L1113.7,443.7z" />
		<path class="st0" d="M1113.7,981.3V818.7H88c-27.6,0-50-22.4-50-50c0-27.6,22.4-50,50-50h1025.7V556.1l212.5,212.6L1113.7,981.3z" />

</svg>