<?xml version="1.0" encoding="utf-8"?>
<!-- Generator: Adobe Illustrator 25.4.1, SVG Export Plug-In . SVG Version: 6.00 Build 0)  -->
<svg version="1.1" id="Layer_1" xmlns="http://www.w3.org/2000/svg"
	xmlns:xlink="http://www.w3.org/1999/xlink" x="0px" y="0px"
	viewBox="0 0 1000 1000" style="enable-background:new 0 0 1000 1000;" xml:space="preserve">
<style type="text/css">
	.st0{fill:#FFFFFF;}
</style>

<path class="st0" d="M792.7,606l113,277.9c5.6,13.7-8.1,27.4-21.8,21.8L606,792.7c-13.9-5.7-13.9-25.4,0-31.1l47.1-19
	c11.1-4.5,14.1-18.9,5.6-27.4L511.8,568.4c-6.5-6.5-17.2-6.5-23.7,0L219.7,836.9c-7.8,7.8-18,11.7-28.3,11.7s-20.5-3.9-28.3-11.7
	c-15.6-15.6-15.6-41,0-56.6l268.5-268.5c6.5-6.5,6.5-17.2,0-23.7L163.1,219.7c-15.6-15.6-15.6-40.9,0-56.6
	c15.6-15.6,40.9-15.6,56.6,0l268.5,268.5c6.5,6.5,17.2,6.5,23.7,0l146.9-146.9c8.5-8.5,5.6-22.9-5.6-27.4l-47.1-19
	c-14-5.6-14-25.4,0-31.1l277.9-113c13.7-5.6,27.4,8.1,21.8,21.8L792.7,394c-5.7,13.9-25.4,13.9-31.1,0l-19-47.1
	c-4.5-11.1-18.9-14.1-27.4-5.6L568.4,488.2c-6.5,6.5-6.5,17.2,0,23.7l146.9,146.9c8.5,8.5,22.9,5.6,27.4-5.6l19-47.1
	C767.3,592.1,787.1,592,792.7,606z"/>
	
</svg>